<svg width="60" height="59" viewBox="0 0 60 59" fill="none" xmlns="http://www.w3.org/2000/svg">
<path fill-rule="evenodd" clip-rule="evenodd" d="M29.9463 0.000178893C22.8358 0.0011358 15.9577 2.53179 10.5421 7.13944C5.12663 11.7471 1.52706 18.1312 0.387325 25.1497C-0.752409 32.1682 0.642049 39.3632 4.32125 45.4478C8.00046 51.5323 13.7244 56.1094 20.4691 58.3603C21.9667 58.6384 22.6084 57.7185 22.6084 56.927C22.6084 56.1354 22.6084 54.3384 22.6084 51.8354C14.2866 53.6325 12.5323 47.8136 12.5323 47.8136C11.9471 45.9798 10.7155 44.4212 9.06667 43.428C6.34976 41.5882 9.2806 41.6096 9.2806 41.6096C10.2296 41.7436 11.1354 42.0928 11.9289 42.6304C12.7223 43.168 13.3824 43.8799 13.8587 44.7116C14.6874 46.1978 16.0723 47.2941 17.7091 47.7595C19.3459 48.2249 21.1004 48.0211 22.5871 47.1932C22.7078 45.6753 23.377 44.2532 24.4696 43.1927C17.8378 42.4225 10.8423 39.8554 10.8423 28.3887C10.7938 25.4106 11.8974 22.5288 13.9229 20.3449C13.0061 17.7654 13.1133 14.9324 14.2224 12.4295C14.2224 12.4295 16.7254 11.6166 22.4587 15.4887C27.3608 14.1515 32.5316 14.1515 37.4338 15.4887C43.1457 11.6166 45.6487 12.4295 45.6487 12.4295C46.7578 14.9324 46.865 17.7654 45.9482 20.3449C47.9737 22.5288 49.0773 25.4106 49.0288 28.3887C49.0288 39.8981 42.0333 42.4225 35.3587 43.1713C36.0737 43.896 36.625 44.7655 36.9756 45.7213C37.3262 46.6771 37.4678 47.6969 37.391 48.7121C37.391 52.7126 37.391 55.9429 37.391 56.927C37.391 57.9111 37.9258 58.6598 39.5303 58.3603C46.2839 56.1066 52.0138 51.5207 55.6924 45.4249C59.3711 39.3292 60.7578 32.1223 59.6041 25.0967C58.4503 18.0711 54.8315 11.6863 49.3965 7.08719C43.9615 2.4881 37.0659 -0.0244177 29.9463 0.000178893V0.000178893Z" fill="white"/>
</svg>
